<mxfile host="app.diagrams.net" modified="2022-03-04T13:28:42.460Z" agent="5.0 (Windows NT 10.0; Win64; x64) AppleWebKit/537.36 (KHTML, like Gecko) Chrome/98.0.4758.102 Safari/537.36" etag="2MSAvqhxB_t_VsU9Bvxb" version="16.6.6" type="github">
  <diagram id="s4mfNOLRqY41mMV1RwYY" name="Page-1">
    <mxGraphModel dx="868" dy="450" grid="1" gridSize="10" guides="1" tooltips="1" connect="1" arrows="1" fold="1" page="1" pageScale="1" pageWidth="827" pageHeight="1169" math="0" shadow="0">
      <root>
        <mxCell id="0" />
        <mxCell id="1" parent="0" />
        <mxCell id="ncF-Bivbpp6cTjjEdOAr-1" value="Etudiant" style="shape=umlActor;verticalLabelPosition=bottom;verticalAlign=top;html=1;outlineConnect=0;" vertex="1" parent="1">
          <mxGeometry x="20" y="90" width="30" height="60" as="geometry" />
        </mxCell>
        <mxCell id="ncF-Bivbpp6cTjjEdOAr-2" value="" style="whiteSpace=wrap;html=1;aspect=fixed;" vertex="1" parent="1">
          <mxGeometry x="430" y="20" width="400" height="400" as="geometry" />
        </mxCell>
        <mxCell id="ncF-Bivbpp6cTjjEdOAr-3" value="S&#39;authentififier" style="ellipse;whiteSpace=wrap;html=1;" vertex="1" parent="1">
          <mxGeometry x="450" y="30" width="100" height="40" as="geometry" />
        </mxCell>
        <mxCell id="ncF-Bivbpp6cTjjEdOAr-5" value="Ajouter un documen" style="ellipse;whiteSpace=wrap;html=1;" vertex="1" parent="1">
          <mxGeometry x="650" y="130" width="100" height="40" as="geometry" />
        </mxCell>
        <mxCell id="ncF-Bivbpp6cTjjEdOAr-8" value="Consulter un document" style="ellipse;whiteSpace=wrap;html=1;" vertex="1" parent="1">
          <mxGeometry x="650" y="180" width="100" height="40" as="geometry" />
        </mxCell>
        <mxCell id="ncF-Bivbpp6cTjjEdOAr-9" value="Modifier un document" style="ellipse;whiteSpace=wrap;html=1;" vertex="1" parent="1">
          <mxGeometry x="650" y="230" width="100" height="40" as="geometry" />
        </mxCell>
        <mxCell id="ncF-Bivbpp6cTjjEdOAr-11" value="Manipuler un document" style="ellipse;whiteSpace=wrap;html=1;" vertex="1" parent="1">
          <mxGeometry x="460" y="150" width="100" height="40" as="geometry" />
        </mxCell>
        <mxCell id="ncF-Bivbpp6cTjjEdOAr-13" value="Extends" style="endArrow=block;endSize=16;endFill=0;html=1;rounded=0;" edge="1" parent="1" source="ncF-Bivbpp6cTjjEdOAr-8" target="ncF-Bivbpp6cTjjEdOAr-11">
          <mxGeometry width="160" relative="1" as="geometry">
            <mxPoint x="640" y="20" as="sourcePoint" />
            <mxPoint x="640" y="20" as="targetPoint" />
            <Array as="points">
              <mxPoint x="560" y="190" />
            </Array>
          </mxGeometry>
        </mxCell>
        <mxCell id="ncF-Bivbpp6cTjjEdOAr-14" value="Extends" style="endArrow=block;endSize=16;endFill=0;html=1;rounded=0;exitX=0.04;exitY=0.35;exitDx=0;exitDy=0;exitPerimeter=0;" edge="1" parent="1" source="ncF-Bivbpp6cTjjEdOAr-9" target="ncF-Bivbpp6cTjjEdOAr-11">
          <mxGeometry width="160" relative="1" as="geometry">
            <mxPoint x="630" y="250" as="sourcePoint" />
            <mxPoint x="790" y="250" as="targetPoint" />
            <Array as="points">
              <mxPoint x="540" y="200" />
            </Array>
          </mxGeometry>
        </mxCell>
        <mxCell id="ncF-Bivbpp6cTjjEdOAr-15" value="Extends" style="endArrow=block;endSize=16;endFill=0;html=1;rounded=0;entryX=1;entryY=0.5;entryDx=0;entryDy=0;" edge="1" parent="1" target="ncF-Bivbpp6cTjjEdOAr-11">
          <mxGeometry width="160" relative="1" as="geometry">
            <mxPoint x="650" y="150" as="sourcePoint" />
            <mxPoint x="810" y="150" as="targetPoint" />
            <Array as="points" />
          </mxGeometry>
        </mxCell>
        <mxCell id="ncF-Bivbpp6cTjjEdOAr-17" value="Includes" style="endArrow=open;endSize=12;dashed=1;html=1;rounded=0;entryX=1;entryY=0;entryDx=0;entryDy=0;exitX=0.5;exitY=1;exitDx=0;exitDy=0;" edge="1" parent="1" source="ncF-Bivbpp6cTjjEdOAr-3" target="ncF-Bivbpp6cTjjEdOAr-11">
          <mxGeometry width="160" relative="1" as="geometry">
            <mxPoint x="540" y="100" as="sourcePoint" />
            <mxPoint x="700" y="100" as="targetPoint" />
          </mxGeometry>
        </mxCell>
        <mxCell id="ncF-Bivbpp6cTjjEdOAr-19" value="Participer au sondage" style="ellipse;whiteSpace=wrap;html=1;" vertex="1" parent="1">
          <mxGeometry x="460" y="230" width="100" height="40" as="geometry" />
        </mxCell>
        <mxCell id="ncF-Bivbpp6cTjjEdOAr-20" value="Echanger avec l&#39;equipes" style="ellipse;whiteSpace=wrap;html=1;" vertex="1" parent="1">
          <mxGeometry x="460" y="290" width="100" height="40" as="geometry" />
        </mxCell>
      </root>
    </mxGraphModel>
  </diagram>
</mxfile>
